<?xml version="1.0" encoding="UTF-8" standalone="no"?><!DOCTYPE svg PUBLIC "-//W3C//DTD SVG 1.1//EN" "http://www.w3.org/Graphics/SVG/1.1/DTD/svg11.dtd"><svg width="100%" height="100%" viewBox="0 0 230 64" version="1.1" xmlns="http://www.w3.org/2000/svg" xmlns:xlink="http://www.w3.org/1999/xlink" xml:space="preserve" xmlns:serif="http://www.serif.com/" style="fill-rule:evenodd;clip-rule:evenodd;stroke-linejoin:round;stroke-miterlimit:1.41421;"><path d="M22.664,12.052c0,4.923 -1.599,6.672 -6.121,6.672l-10.096,0c-4.897,0 -6.447,-2.2 -6.447,-6.774l0,-4.945c0,-4.574 1.55,-6.772 6.447,-6.772l9.245,0c3.25,0 6.722,0.799 6.722,4.97l0,0.653l-2.299,0c0,-3.375 -1.025,-3.624 -7.072,-3.624l-6.347,0c-2.348,0 -4.247,0.7 -4.247,3.847l0,6.797c0,3.149 1.899,3.848 4.247,3.848l9.57,0c2.449,0 3.948,-0.85 3.948,-3.349l0,-1.823l-9.27,0l0,-2l11.72,0l0,2.5Z" style="fill:#1d1d1b;fill-rule:nonzero;"/><path d="M26.994,0.432l2.449,0l0,16.092l14.044,0l0,2.001l-16.493,0l0,-18.093Z" style="fill:#1d1d1b;fill-rule:nonzero;"/><path d="M76.95,0.432l15.442,0c3.749,0 4.798,1.948 4.798,4.022l0,1.549c0,1.3 -0.724,2.625 -2.924,2.851l0,0.099c1.924,0.101 3.626,0.826 3.626,3.575l0,2.146c0,2.525 -2.251,3.851 -5.249,3.851l-15.692,0l0,-18.093l-0.001,0Zm17.793,3.898c0,-1.649 -1.827,-1.899 -2.576,-1.899l-12.768,0l0,5.771l12.643,0c1.325,0 2.701,-0.425 2.701,-2.224l0,-1.648Zm0.697,8.472c0,-2.249 -1.248,-2.599 -3.473,-2.599l-12.568,0l0,6.321l12.943,0c2.275,0 3.098,-0.825 3.098,-2.423l0,-1.299Z" style="fill:#1d1d1b;fill-rule:nonzero;"/><path d="M110.964,0.432l3.05,0l10.744,18.093l-2.774,0l-2.249,-3.825l-14.493,0l-2.249,3.825l-2.773,0l10.744,-18.093Zm1.524,1.999l-6.072,10.269l12.145,0l-6.073,-10.269Z" style="fill:#1d1d1b;fill-rule:nonzero;"/><path d="M127.538,0.432l2.449,0l0,16.092l14.044,0l0,2.001l-16.493,0l0,-18.093Z" style="fill:#1d1d1b;fill-rule:nonzero;"/><path d="M15.225,24.532l15.442,0c3.747,0 4.797,1.949 4.797,4.023l0,1.55c0,1.3 -0.724,2.624 -2.923,2.848l0,0.101c1.925,0.1 3.623,0.824 3.623,3.574l0,2.147c0,2.525 -2.249,3.85 -5.247,3.85l-15.692,0l0,-18.093Zm17.79,3.899c0,-1.648 -1.823,-1.899 -2.573,-1.899l-12.77,0l0,5.772l12.646,0c1.324,0 2.698,-0.425 2.698,-2.223l0,-1.65l-0.001,0Zm0.701,8.471c0,-2.249 -1.25,-2.598 -3.475,-2.598l-12.569,0l0,6.322l12.944,0c2.275,0 3.101,-0.825 3.101,-2.425l0,-1.299l-0.001,0Z" style="fill:#1d1d1b;fill-rule:nonzero;"/><rect x="40.593" y="24.534" width="2.449" height="18.091" style="fill:#1d1d1b;"/><rect x="80.815" y="24.534" width="2.449" height="18.091" style="fill:#1d1d1b;"/><path d="M87.986,24.532l3.823,0l10.572,15.171l10.571,-15.171l3.822,0l0,18.093l-2.449,0l0,-15.894l-0.049,0l-11.022,15.894l-1.747,0l-11.02,-15.894l-0.05,0l0,15.894l-2.451,0l0,-18.093Z" style="fill:#1d1d1b;fill-rule:nonzero;"/><path d="M130.15,24.532l3.05,0l10.744,18.093l-2.774,0l-2.249,-3.825l-14.493,0l-2.249,3.825l-2.772,0l10.743,-18.093Zm1.526,2l-6.074,10.269l12.145,0l-6.071,-10.269Z" style="fill:#1d1d1b;fill-rule:nonzero;"/><path d="M168.914,36.153c0,4.923 -1.599,6.672 -6.123,6.672l-10.094,0c-4.898,0 -6.447,-2.198 -6.447,-6.772l0,-4.947c0,-4.574 1.549,-6.77 6.447,-6.77l9.245,0c3.249,0 6.722,0.797 6.722,4.97l0,0.651l-2.299,0c0,-3.373 -1.025,-3.624 -7.073,-3.624l-6.346,0c-2.35,0 -4.25,0.699 -4.25,3.847l0,6.797c0,3.149 1.9,3.849 4.25,3.849l9.57,0c2.448,0 3.947,-0.851 3.947,-3.348l0,-1.825l-9.27,0l0,-1.999l11.72,0l0,2.499l0.001,0Z" style="fill:#1d1d1b;fill-rule:nonzero;"/><rect x="173.317" y="24.534" width="2.447" height="18.091" style="fill:#1d1d1b;"/><path d="M180.491,24.532l3.648,0l16.568,15.893l0,-15.893l2.449,0l0,18.093l-3.648,0l-16.568,-15.894l0,15.894l-2.449,0l0,-18.093Z" style="fill:#1d1d1b;fill-rule:nonzero;"/><path d="M230,36.153c0,4.923 -1.6,6.672 -6.122,6.672l-10.096,0c-4.896,0 -6.447,-2.198 -6.447,-6.772l0,-4.947c0,-4.574 1.551,-6.77 6.447,-6.77l9.247,0c3.246,0 6.722,0.797 6.722,4.97l0,0.651l-2.3,0c0,-3.373 -1.025,-3.624 -7.072,-3.624l-6.347,0c-2.349,0 -4.249,0.699 -4.249,3.847l0,6.797c0,3.149 1.9,3.849 4.249,3.849l9.57,0c2.45,0 3.949,-0.851 3.949,-3.348l0,-1.825l-9.271,0l0,-1.999l11.719,0l0,2.499l0.001,0Z" style="fill:#1d1d1b;fill-rule:nonzero;"/><clipPath id="_clip1"><path d="M47.375,14.528c0,-6.894 5.485,-12.581 12.458,-12.581c6.977,0 12.462,5.687 12.462,12.581c0,6.856 -5.564,12.584 -12.462,12.584c-6.893,0 -12.458,-5.728 -12.458,-12.584m-2.183,0.039c0,8.086 6.631,14.492 14.641,14.492c8.01,0 14.643,-6.407 14.643,-14.492c0,-8.047 -6.633,-14.567 -14.643,-14.567c-8.01,0 -14.641,6.52 -14.641,14.567"/></clipPath><g clip-path="url(#_clip1)"><path d="M69.333,-11.142l16.198,35.099l-35.196,16.244l-16.2,-35.098l35.198,-16.245Z" style="fill:url(#_Linear2);fill-rule:nonzero;"/></g><clipPath id="_clip3"><path d="M49.371,30.525c0,-6.759 5.376,-12.335 12.215,-12.335c6.84,0 12.218,5.576 12.218,12.335c0,6.722 -5.455,12.337 -12.218,12.337c-6.761,0 -12.215,-5.615 -12.215,-12.337m-2.427,0.037c0,8.085 6.632,14.493 14.642,14.493c8.01,0 14.642,-6.409 14.642,-14.493c0,-8.046 -6.632,-14.564 -14.642,-14.564c-8.01,0 -14.642,6.518 -14.642,14.564"/></clipPath><g clip-path="url(#_clip3)"><path d="M71.085,4.855l16.197,35.097l-35.196,16.245l-16.2,-35.097l35.199,-16.245Z" style="fill:url(#_Linear4);fill-rule:nonzero;"/></g><path d="M25.909,60.805c0,2.387 -2.093,2.867 -3.751,2.867l-3.007,0c-2.449,0 -3.1,-1.348 -3.1,-2.355l0,-0.264l1.24,0l0,0.218c0,1.023 1.054,1.317 2.294,1.317l1.301,0c2.635,0 3.689,-0.031 3.689,-2.17l0,-1.178l-0.032,0c-0.278,0.744 -0.82,1.224 -2.68,1.224l-2.743,0c-2.216,0 -3.318,-1.131 -3.318,-3.162l0,-1.317c0,-2.868 2.077,-3.194 3.566,-3.194l2.835,0c1.007,0 2.014,0.249 2.433,1.535l0.032,0l0,-1.41l1.239,0l0,7.889l0.002,0Zm-1.333,-4.51c0.031,-1.473 -0.496,-2.418 -2.371,-2.418l-2.712,0c-1.364,0 -2.342,0.372 -2.356,1.674l0,1.456c-0.015,1.814 0.635,2.372 2.262,2.372l2.574,0c1.906,0 2.603,-0.76 2.603,-2.124l0,-0.96Z" style="fill:#1d1d1b;fill-rule:nonzero;"/><path d="M28.455,52.916l1.24,0l0,1.147l0.031,0c0.495,-1.023 1.504,-1.27 2.418,-1.27l1.255,0c2.495,0 3.317,0.806 3.317,2.743l0,0.945l-1.24,0l0,-0.34c0,-1.953 -0.403,-2.263 -2.774,-2.263l-0.823,0c-1.41,0 -2.092,0.899 -2.092,1.922l0,5.021l-1.332,0l0,-7.905Z" style="fill:#1d1d1b;fill-rule:nonzero;"/><path d="M37.959,56c0,-2.603 1.845,-3.208 4.371,-3.208l1.906,0c2.526,0 4.371,0.605 4.371,3.208l0,1.736c0,2.604 -1.845,3.209 -4.371,3.209l-1.906,0c-2.526,0 -4.371,-0.605 -4.371,-3.209l0,-1.736Zm9.315,0.078c0,-1.845 -1.085,-2.201 -2.635,-2.201l-2.712,0c-1.549,0 -2.636,0.356 -2.636,2.201l0,1.581c0,1.844 1.087,2.2 2.636,2.2l2.712,0c1.55,0 2.635,-0.356 2.635,-2.2l0,-1.581Z" style="fill:#1d1d1b;fill-rule:nonzero;"/><path d="M49.634,52.916l1.41,0l3.084,6.82l2.512,-6.82l1.921,0l2.511,6.82l3.084,-6.82l1.411,0l-3.596,7.905l-1.844,0l-2.527,-6.819l-2.526,6.819l-1.843,0l-3.597,-7.905Z" style="fill:#1d1d1b;fill-rule:nonzero;"/><path d="M67.044,49.599l1.333,0l0,1.457l-1.333,0l0,-1.457Zm0,3.317l1.333,0l0,7.905l-1.333,0l0,-7.905Z" style="fill:#1d1d1b;fill-rule:nonzero;"/><path d="M70.998,52.916l1.24,0l0,1.364l0.031,0c0.497,-1.224 1.535,-1.488 3.194,-1.488l1.998,0c2.496,0 3.287,1.256 3.287,2.682l0,5.346l-1.333,0l0,-5.021c0,-1.163 -0.325,-1.922 -2.913,-1.922l-0.342,0c-3.115,0 -3.828,0.589 -3.828,2.449l0,4.494l-1.333,0l0,-7.904l-0.001,0Z" style="fill:#1d1d1b;fill-rule:nonzero;"/><path d="M92.932,60.805c0,2.387 -2.093,2.867 -3.75,2.867l-3.007,0c-2.449,0 -3.1,-1.348 -3.1,-2.355l0,-0.264l1.24,0l0,0.218c0,1.023 1.053,1.317 2.294,1.317l1.301,0c2.635,0 3.689,-0.031 3.689,-2.17l0,-1.178l-0.032,0c-0.278,0.744 -0.82,1.224 -2.681,1.224l-2.742,0c-2.217,0 -3.318,-1.131 -3.318,-3.162l0,-1.317c0,-2.868 2.077,-3.194 3.565,-3.194l2.836,0c1.007,0 2.014,0.249 2.433,1.535l0.031,0l0,-1.41l1.24,0l0,7.889l0.001,0Zm-1.332,-4.51c0.03,-1.473 -0.496,-2.418 -2.371,-2.418l-2.713,0c-1.364,0 -2.341,0.372 -2.355,1.674l0,1.456c-0.016,1.814 0.635,2.372 2.262,2.372l2.574,0c1.906,0 2.603,-0.76 2.603,-2.124l0,-0.96Z" style="fill:#1d1d1b;fill-rule:nonzero;"/><path d="M102.409,55.985c0,-2.868 2.016,-3.194 3.968,-3.194l2.232,0c2.48,0 3.455,1.008 3.455,2.682l0,0.217l-1.239,0l0,-0.186c0,-1.318 -0.869,-1.628 -2.201,-1.628l-2.45,0c-1.255,0 -2.433,0.186 -2.433,2.155l0,1.658c0,1.767 1.085,2.17 2.697,2.17l2.249,0c1.239,0 2.278,-0.372 2.278,-1.658l0,-0.263l1.24,0l0,0.232c0,1.999 -0.992,2.774 -3.472,2.774l-3.007,0c-1.193,0 -3.317,-0.325 -3.317,-3.194l0,-1.765Z" style="fill:#1d1d1b;fill-rule:nonzero;"/><path d="M113.914,56c0,-2.603 1.845,-3.208 4.37,-3.208l1.907,0c2.526,0 4.371,0.605 4.371,3.208l0,1.736c0,2.604 -1.845,3.209 -4.371,3.209l-1.907,0c-2.525,0 -4.37,-0.605 -4.37,-3.209l0,-1.736Zm9.313,0.078c0,-1.845 -1.084,-2.201 -2.633,-2.201l-2.713,0c-1.55,0 -2.635,0.356 -2.635,2.201l0,1.581c0,1.844 1.085,2.2 2.635,2.2l2.713,0c1.549,0 2.633,-0.356 2.633,-2.2l0,-1.581Z" style="fill:#1d1d1b;fill-rule:nonzero;"/><rect x="126.922" y="49.599" width="1.332" height="11.221" style="fill:#1d1d1b;fill-rule:nonzero;"/><rect x="131.06" y="49.599" width="1.332" height="11.221" style="fill:#1d1d1b;fill-rule:nonzero;"/><path d="M143.183,60.03l-0.032,0c-0.357,0.713 -0.775,0.915 -2.822,0.915l-3.192,0c-2.015,0 -2.542,-0.884 -2.542,-2.372l0,-0.527c0,-1.798 1.271,-2.015 3.596,-2.015l2.138,0c1.737,0 2.357,0.186 2.822,0.945l0.032,0l0,-1.488c0,-1.425 -0.9,-1.611 -2.946,-1.611l-1.953,0c-1.674,0 -2,0.403 -2,1.054l0,0.279l-1.332,0l0,-0.387c0,-1.441 0.915,-2.031 3.302,-2.031l2.107,0c2.48,0 4.154,0.372 4.154,2.729l0,5.3l-1.332,0l0,-0.791Zm0,-1.69c0,-1.085 -0.962,-1.224 -3.009,-1.224l-2.045,0c-1.72,0 -2.201,0.248 -2.201,1.24l0,0.248c0,0.883 0.31,1.255 2.139,1.255l1.767,0c2.417,0 3.349,-0.17 3.349,-1.162l0,-0.357Z" style="fill:#1d1d1b;fill-rule:nonzero;"/><path d="M146.796,49.599l1.334,0l0,4.371l0.03,0c0.28,-0.822 1.008,-1.178 2.526,-1.178l2.031,0c3.208,0 4.185,0.9 4.185,3.426l0,1.394c0,2.728 -1.69,3.333 -4.108,3.333l-1.86,0c-1.394,0 -2.479,-0.419 -2.867,-1.38l-0.03,0l0,1.255l-1.241,0l0,-11.221Zm8.773,6.448c0,-1.829 -0.915,-2.17 -2.744,-2.17l-1.797,0c-1.797,0 -2.897,0.31 -2.897,2.201l0,1.504c0,1.441 0.635,2.278 2.619,2.278l2.169,0c2.17,0 2.65,-0.728 2.65,-2.263l0,-1.55Z" style="fill:#1d1d1b;fill-rule:nonzero;"/><path d="M158.719,56c0,-2.603 1.845,-3.208 4.371,-3.208l1.907,0c2.526,0 4.371,0.605 4.371,3.208l0,1.736c0,2.604 -1.845,3.209 -4.371,3.209l-1.907,0c-2.526,0 -4.371,-0.605 -4.371,-3.209l0,-1.736Zm9.315,0.078c0,-1.845 -1.085,-2.201 -2.634,-2.201l-2.712,0c-1.551,0 -2.636,0.356 -2.636,2.201l0,1.581c0,1.844 1.085,2.2 2.636,2.2l2.712,0c1.549,0 2.634,-0.356 2.634,-2.2l0,-1.581Z" style="fill:#1d1d1b;fill-rule:nonzero;"/><path d="M171.65,52.916l1.24,0l0,1.147l0.032,0c0.495,-1.023 1.503,-1.27 2.417,-1.27l1.255,0c2.496,0 3.317,0.806 3.317,2.743l0,0.945l-1.24,0l0,-0.34c0,-1.953 -0.403,-2.263 -2.774,-2.263l-0.822,0c-1.41,0 -2.092,0.899 -2.092,1.922l0,5.021l-1.332,0l0,-7.905l-0.001,0Z" style="fill:#1d1d1b;fill-rule:nonzero;"/><path d="M189.586,60.03l-0.032,0c-0.355,0.713 -0.775,0.915 -2.82,0.915l-3.194,0c-2.014,0 -2.542,-0.884 -2.542,-2.372l0,-0.527c0,-1.798 1.271,-2.015 3.596,-2.015l2.139,0c1.736,0 2.355,0.186 2.82,0.945l0.032,0l0,-1.488c0,-1.425 -0.9,-1.611 -2.945,-1.611l-1.952,0c-1.674,0 -2,0.403 -2,1.054l0,0.279l-1.332,0l0,-0.387c0,-1.441 0.914,-2.031 3.301,-2.031l2.108,0c2.479,0 4.153,0.372 4.153,2.729l0,5.3l-1.332,0l0,-0.791Zm0,-1.69c0,-1.085 -0.962,-1.224 -3.007,-1.224l-2.046,0c-1.721,0 -2.202,0.248 -2.202,1.24l0,0.248c0,0.883 0.312,1.255 2.139,1.255l1.767,0c2.419,0 3.349,-0.17 3.349,-1.162l0,-0.357Z" style="fill:#1d1d1b;fill-rule:nonzero;"/><path d="M193.913,54.001l-1.735,0l0,-1.085l1.735,0l0,-1.876l1.332,0l0,1.876l5.286,0l0,1.085l-5.286,0l0,3.937c0,1.472 0.512,1.921 1.969,1.921l0.418,0c1.768,0 2.046,-0.372 2.046,-2.031l0,-0.589l1.086,0l0,0.868c0,1.582 -0.155,2.837 -3.038,2.837l-0.729,0c-2.494,0 -3.084,-1.209 -3.084,-2.495l0,-4.448Z" style="fill:#1d1d1b;fill-rule:nonzero;"/><path d="M202.503,49.599l1.333,0l0,1.457l-1.333,0l0,-1.457Zm0,3.317l1.333,0l0,7.905l-1.333,0l0,-7.905Z" style="fill:#1d1d1b;fill-rule:nonzero;"/><path d="M206.193,56c0,-2.603 1.844,-3.208 4.37,-3.208l1.907,0c2.526,0 4.371,0.605 4.371,3.208l0,1.736c0,2.604 -1.845,3.209 -4.371,3.209l-1.907,0c-2.526,0 -4.37,-0.605 -4.37,-3.209l0,-1.736Zm9.315,0.078c0,-1.845 -1.084,-2.201 -2.635,-2.201l-2.712,0c-1.549,0 -2.635,0.356 -2.635,2.201l0,1.581c0,1.844 1.086,2.2 2.635,2.2l2.712,0c1.551,0 2.635,-0.356 2.635,-2.2l0,-1.581Z" style="fill:#1d1d1b;fill-rule:nonzero;"/><path d="M219.014,52.916l1.24,0l0,1.364l0.031,0c0.496,-1.224 1.535,-1.488 3.193,-1.488l2,0c2.496,0 3.287,1.256 3.287,2.682l0,5.346l-1.334,0l0,-5.021c0,-1.163 -0.325,-1.922 -2.914,-1.922l-0.341,0c-3.114,0 -3.828,0.589 -3.828,2.449l0,4.494l-1.333,0l0,-7.904l-0.001,0Z" style="fill:#1d1d1b;fill-rule:nonzero;"/><defs><linearGradient id="_Linear2" x1="0" y1="0" x2="1" y2="0" gradientUnits="userSpaceOnUse" gradientTransform="matrix(17.6648,38.2737,-38.2737,17.6648,53.4501,0.78818)"><stop offset="0" style="stop-color:#e20613;stop-opacity:1"/><stop offset="0.03" style="stop-color:#e72e0e;stop-opacity:1"/><stop offset="0.05" style="stop-color:#eb5109;stop-opacity:1"/><stop offset="0.08" style="stop-color:#ee6d05;stop-opacity:1"/><stop offset="0.11" style="stop-color:#f08102;stop-opacity:1"/><stop offset="0.14" style="stop-color:#f28d01;stop-opacity:1"/><stop offset="0.16" style="stop-color:#f29100;stop-opacity:1"/><stop offset="0.31" style="stop-color:#fcc200;stop-opacity:1"/><stop offset="0.34" style="stop-color:#edc204;stop-opacity:1"/><stop offset="0.4" style="stop-color:#c6c110;stop-opacity:1"/><stop offset="0.48" style="stop-color:#93c01f;stop-opacity:1"/><stop offset="0.63" style="stop-color:#009ee2;stop-opacity:1"/><stop offset="0.73" style="stop-color:#007bc3;stop-opacity:1"/><stop offset="0.81" style="stop-color:#0069b3;stop-opacity:1"/><stop offset="0.86" style="stop-color:#2351a2;stop-opacity:1"/><stop offset="0.92" style="stop-color:#483991;stop-opacity:1"/><stop offset="0.97" style="stop-color:#5e2a86;stop-opacity:1"/><stop offset="1" style="stop-color:#662482;stop-opacity:1"/><stop offset="1" style="stop-color:#662482;stop-opacity:1"/></linearGradient><linearGradient id="_Linear4" x1="0" y1="0" x2="1" y2="0" gradientUnits="userSpaceOnUse" gradientTransform="matrix(16.8242,36.4523,-36.4523,16.8242,49.9188,5.14056)"><stop offset="0" style="stop-color:#e20613;stop-opacity:1"/><stop offset="0.03" style="stop-color:#e72e0e;stop-opacity:1"/><stop offset="0.05" style="stop-color:#eb5109;stop-opacity:1"/><stop offset="0.08" style="stop-color:#ee6d05;stop-opacity:1"/><stop offset="0.11" style="stop-color:#f08102;stop-opacity:1"/><stop offset="0.14" style="stop-color:#f28d01;stop-opacity:1"/><stop offset="0.16" style="stop-color:#f29100;stop-opacity:1"/><stop offset="0.31" style="stop-color:#fcc200;stop-opacity:1"/><stop offset="0.34" style="stop-color:#edc204;stop-opacity:1"/><stop offset="0.4" style="stop-color:#c6c110;stop-opacity:1"/><stop offset="0.48" style="stop-color:#93c01f;stop-opacity:1"/><stop offset="0.63" style="stop-color:#009ee2;stop-opacity:1"/><stop offset="0.73" style="stop-color:#007bc3;stop-opacity:1"/><stop offset="0.81" style="stop-color:#0069b3;stop-opacity:1"/><stop offset="0.86" style="stop-color:#2351a2;stop-opacity:1"/><stop offset="0.92" style="stop-color:#483991;stop-opacity:1"/><stop offset="0.97" style="stop-color:#5e2a86;stop-opacity:1"/><stop offset="1" style="stop-color:#662482;stop-opacity:1"/><stop offset="1" style="stop-color:#662482;stop-opacity:1"/></linearGradient></defs></svg>